<mxfile host="65bd71144e">
    <diagram name="Page-1" id="e7e014a7-5840-1c2e-5031-d8a46d1fe8dd">
        <mxGraphModel dx="1980" dy="1131" grid="1" gridSize="10" guides="1" tooltips="1" connect="1" arrows="0" fold="1" page="1" pageScale="1" pageWidth="1169" pageHeight="826" background="none" math="0" shadow="0">
            <root>
                <mxCell id="0"/>
                <mxCell id="1" parent="0"/>
                <mxCell id="ucOL65wZWcOJnMj6o85P-55" value="skin_lib" style="swimlane;whiteSpace=wrap;startSize=23;swimlaneFillColor=none;labelBackgroundColor=none;fillColor=#FAE5C7;strokeColor=#0F8B8D;fontColor=#143642;" parent="1" vertex="1">
                    <mxGeometry x="978" y="112" width="280" height="560" as="geometry"/>
                </mxCell>
                <mxCell id="mHzkHHyCrzJshyYu6dmJ-29" value="&lt;p style=&quot;margin: 0px; line-height: 100%;&quot; align=&quot;center&quot;&gt;过滤时效性皮肤&lt;/p&gt;&lt;p style=&quot;margin: 0px; line-height: 100%;&quot; align=&quot;center&quot;&gt;0：永久，Time:时间&lt;/p&gt;&lt;p style=&quot;margin: 0px; line-height: 100%;&quot; align=&quot;center&quot;&gt;MFA即对应功能进行时效验证&lt;/p&gt;" style="rounded=0;whiteSpace=wrap;html=1;labelBorderColor=none;fontFamily=Verdana;fontSize=12;labelBackgroundColor=none;fillColor=#FAE5C7;strokeColor=#0F8B8D;fontColor=#143642;" parent="ucOL65wZWcOJnMj6o85P-55" vertex="1">
                    <mxGeometry x="80" y="292" width="120" height="80" as="geometry"/>
                </mxCell>
                <mxCell id="ucOL65wZWcOJnMj6o85P-62" value="&lt;b&gt;皮肤框架流程图&lt;/b&gt;" style="rounded=0;whiteSpace=wrap;html=1;labelBorderColor=none;fontFamily=Verdana;fontSize=12;swimlaneFillColor=none;labelBackgroundColor=none;fillColor=#FAE5C7;strokeColor=#0F8B8D;fontColor=#143642;" parent="1" vertex="1">
                    <mxGeometry x="138" y="80" width="1680" height="32" as="geometry"/>
                </mxCell>
                <mxCell id="mHzkHHyCrzJshyYu6dmJ-15" value="skin_port" style="swimlane;whiteSpace=wrap;swimlaneFillColor=none;labelBackgroundColor=none;fillColor=#FAE5C7;strokeColor=#0F8B8D;fontColor=#143642;" parent="1" vertex="1">
                    <mxGeometry x="137" y="112" width="280" height="560" as="geometry"/>
                </mxCell>
                <mxCell id="mHzkHHyCrzJshyYu6dmJ-20" value="获取皮肤基础&lt;br&gt;get_skin_info" style="ellipse;whiteSpace=wrap;html=1;labelBackgroundColor=none;fillColor=#FAE5C7;strokeColor=#0F8B8D;fontColor=#143642;" parent="mHzkHHyCrzJshyYu6dmJ-15" vertex="1">
                    <mxGeometry x="80" y="52" width="120" height="80" as="geometry"/>
                </mxCell>
                <mxCell id="mHzkHHyCrzJshyYu6dmJ-31" value="返回客户端" style="ellipse;whiteSpace=wrap;html=1;labelBackgroundColor=none;fillColor=#FAE5C7;strokeColor=#0F8B8D;fontColor=#143642;" parent="mHzkHHyCrzJshyYu6dmJ-15" vertex="1">
                    <mxGeometry x="80" y="412" width="120" height="80" as="geometry"/>
                </mxCell>
                <mxCell id="mHzkHHyCrzJshyYu6dmJ-16" value="skin_db" style="swimlane;whiteSpace=wrap;aspect=fixed;swimlaneFillColor=none;labelBackgroundColor=none;fillColor=#FAE5C7;strokeColor=#0F8B8D;fontColor=#143642;" parent="1" vertex="1">
                    <mxGeometry x="416" y="112" width="280" height="560" as="geometry"/>
                </mxCell>
                <mxCell id="mHzkHHyCrzJshyYu6dmJ-18" value="获取皮肤基础信息&lt;br&gt;get_skin_info" style="rounded=0;whiteSpace=wrap;html=1;labelBorderColor=none;fontFamily=Verdana;fontSize=12;labelBackgroundColor=none;fillColor=#FAE5C7;strokeColor=#0F8B8D;fontColor=#143642;" parent="mHzkHHyCrzJshyYu6dmJ-16" vertex="1">
                    <mxGeometry x="80" y="52" width="120" height="80" as="geometry"/>
                </mxCell>
                <mxCell id="mHzkHHyCrzJshyYu6dmJ-28" value="得到对应类型的皮肤数据" style="rounded=0;whiteSpace=wrap;html=1;labelBorderColor=none;fontFamily=Verdana;fontSize=12;labelBackgroundColor=none;fillColor=#FAE5C7;strokeColor=#0F8B8D;fontColor=#143642;" parent="mHzkHHyCrzJshyYu6dmJ-16" vertex="1">
                    <mxGeometry x="83" y="172" width="120" height="80" as="geometry"/>
                </mxCell>
                <mxCell id="mHzkHHyCrzJshyYu6dmJ-30" value="&lt;p style=&quot;margin: 0px; line-height: 100%;&quot; align=&quot;center&quot;&gt;pb格式化&lt;/p&gt;" style="rounded=0;whiteSpace=wrap;html=1;labelBorderColor=none;fontFamily=Verdana;fontSize=12;labelBackgroundColor=none;fillColor=#FAE5C7;strokeColor=#0F8B8D;fontColor=#143642;" parent="mHzkHHyCrzJshyYu6dmJ-16" vertex="1">
                    <mxGeometry x="80" y="412" width="120" height="80" as="geometry"/>
                </mxCell>
                <mxCell id="mHzkHHyCrzJshyYu6dmJ-33" style="edgeStyle=none;rounded=0;orthogonalLoop=1;jettySize=auto;html=1;exitX=1;exitY=0.5;exitDx=0;exitDy=0;entryX=0;entryY=0.5;entryDx=0;entryDy=0;labelBackgroundColor=none;strokeColor=#A8201A;fontColor=default;" parent="1" source="mHzkHHyCrzJshyYu6dmJ-20" target="mHzkHHyCrzJshyYu6dmJ-18" edge="1">
                    <mxGeometry relative="1" as="geometry"/>
                </mxCell>
                <mxCell id="mHzkHHyCrzJshyYu6dmJ-34" style="edgeStyle=none;rounded=0;orthogonalLoop=1;jettySize=auto;html=1;exitX=1;exitY=0.5;exitDx=0;exitDy=0;entryX=0;entryY=0.5;entryDx=0;entryDy=0;labelBackgroundColor=none;strokeColor=#A8201A;fontColor=default;" parent="1" source="mHzkHHyCrzJshyYu6dmJ-18" target="mHzkHHyCrzJshyYu6dmJ-25" edge="1">
                    <mxGeometry relative="1" as="geometry"/>
                </mxCell>
                <mxCell id="mHzkHHyCrzJshyYu6dmJ-37" style="edgeStyle=none;rounded=0;orthogonalLoop=1;jettySize=auto;html=1;exitX=0;exitY=0.5;exitDx=0;exitDy=0;entryX=1;entryY=0.5;entryDx=0;entryDy=0;labelBackgroundColor=none;strokeColor=#A8201A;fontColor=default;" parent="1" source="8" target="mHzkHHyCrzJshyYu6dmJ-28" edge="1">
                    <mxGeometry relative="1" as="geometry">
                        <mxPoint x="770" y="422" as="sourcePoint"/>
                    </mxGeometry>
                </mxCell>
                <mxCell id="mHzkHHyCrzJshyYu6dmJ-38" style="edgeStyle=none;rounded=0;orthogonalLoop=1;jettySize=auto;html=1;exitX=0.5;exitY=1;exitDx=0;exitDy=0;entryX=0;entryY=0.5;entryDx=0;entryDy=0;labelBackgroundColor=none;strokeColor=#A8201A;fontColor=default;" parent="1" source="mHzkHHyCrzJshyYu6dmJ-28" target="mHzkHHyCrzJshyYu6dmJ-29" edge="1">
                    <mxGeometry relative="1" as="geometry">
                        <Array as="points">
                            <mxPoint x="560" y="444"/>
                        </Array>
                    </mxGeometry>
                </mxCell>
                <mxCell id="mHzkHHyCrzJshyYu6dmJ-39" style="edgeStyle=none;rounded=0;orthogonalLoop=1;jettySize=auto;html=1;exitX=0.5;exitY=1;exitDx=0;exitDy=0;entryX=1;entryY=0.5;entryDx=0;entryDy=0;labelBackgroundColor=none;strokeColor=#A8201A;fontColor=default;" parent="1" edge="1">
                    <mxGeometry relative="1" as="geometry">
                        <Array as="points">
                            <mxPoint x="1120" y="559"/>
                        </Array>
                        <mxPoint x="1118" y="483" as="sourcePoint"/>
                        <mxPoint x="616" y="563" as="targetPoint"/>
                    </mxGeometry>
                </mxCell>
                <mxCell id="mHzkHHyCrzJshyYu6dmJ-40" style="edgeStyle=none;rounded=0;orthogonalLoop=1;jettySize=auto;html=1;exitX=0;exitY=0.5;exitDx=0;exitDy=0;entryX=1;entryY=0.5;entryDx=0;entryDy=0;labelBackgroundColor=none;strokeColor=#A8201A;fontColor=default;" parent="1" source="mHzkHHyCrzJshyYu6dmJ-30" target="mHzkHHyCrzJshyYu6dmJ-31" edge="1">
                    <mxGeometry relative="1" as="geometry"/>
                </mxCell>
                <mxCell id="4" value="skin_Mod(框架实现skin_common)" style="swimlane;whiteSpace=wrap;aspect=fixed;swimlaneFillColor=none;labelBackgroundColor=none;fillColor=#FAE5C7;strokeColor=#0F8B8D;fontColor=#143642;" parent="1" vertex="1">
                    <mxGeometry x="697" y="112" width="280" height="560" as="geometry"/>
                </mxCell>
                <mxCell id="8" value="对应模块读取数据信息" style="shape=document;whiteSpace=wrap;html=1;boundedLbl=1;labelBackgroundColor=none;fillColor=#FAE5C7;strokeColor=#0F8B8D;fontColor=#143642;" parent="4" vertex="1">
                    <mxGeometry x="80" y="172" width="120" height="80" as="geometry"/>
                </mxCell>
                <mxCell id="18" value="skin_event" style="swimlane;whiteSpace=wrap;startSize=23;swimlaneFillColor=none;labelBackgroundColor=none;fillColor=#FAE5C7;strokeColor=#0F8B8D;fontColor=#143642;" parent="1" vertex="1">
                    <mxGeometry x="1537" y="112" width="280" height="560" as="geometry"/>
                </mxCell>
                <mxCell id="27" value="" style="swimlane;startSize=0;fontSize=18;fontColor=#143642;labelBackgroundColor=none;fillColor=#FAE5C7;strokeColor=#0F8B8D;" parent="1" vertex="1">
                    <mxGeometry x="136" y="672" width="280" height="560" as="geometry"/>
                </mxCell>
                <mxCell id="29" value="" style="swimlane;startSize=0;fontSize=18;fontColor=#143642;labelBackgroundColor=none;fillColor=#FAE5C7;strokeColor=#0F8B8D;" parent="1" vertex="1">
                    <mxGeometry x="416" y="672" width="280" height="560" as="geometry"/>
                </mxCell>
                <mxCell id="30" value="" style="swimlane;startSize=0;fontSize=18;fontColor=#143642;labelBackgroundColor=none;fillColor=#FAE5C7;strokeColor=#0F8B8D;" parent="1" vertex="1">
                    <mxGeometry x="697" y="672" width="280" height="560" as="geometry"/>
                </mxCell>
                <mxCell id="37" value="对应模块读取数据信息" style="shape=document;whiteSpace=wrap;html=1;boundedLbl=1;labelBackgroundColor=none;fillColor=#FAE5C7;strokeColor=#0F8B8D;fontColor=#143642;" parent="30" vertex="1">
                    <mxGeometry x="83" y="168" width="120" height="80" as="geometry"/>
                </mxCell>
                <mxCell id="48" value="结束" style="ellipse;whiteSpace=wrap;html=1;labelBackgroundColor=none;fillColor=#FAE5C7;strokeColor=#0F8B8D;fontColor=#143642;" parent="30" vertex="1">
                    <mxGeometry x="83" y="408" width="120" height="80" as="geometry"/>
                </mxCell>
                <mxCell id="51" style="edgeStyle=none;html=1;exitX=0.5;exitY=1;exitDx=0;exitDy=0;entryX=0.5;entryY=0;entryDx=0;entryDy=0;fontSize=18;fontColor=default;labelBackgroundColor=none;strokeColor=#A8201A;" parent="30" source="50" target="48" edge="1">
                    <mxGeometry relative="1" as="geometry"/>
                </mxCell>
                <mxCell id="50" value="修改数据库信息落库" style="rounded=0;whiteSpace=wrap;html=1;labelBorderColor=none;fontFamily=Verdana;fontSize=12;labelBackgroundColor=none;fillColor=#FAE5C7;strokeColor=#0F8B8D;fontColor=#143642;" parent="30" vertex="1">
                    <mxGeometry x="83" y="298" width="120" height="80" as="geometry"/>
                </mxCell>
                <mxCell id="31" value="" style="swimlane;startSize=0;fontSize=18;fontColor=#143642;labelBackgroundColor=none;fillColor=#FAE5C7;strokeColor=#0F8B8D;" parent="1" vertex="1">
                    <mxGeometry x="977" y="672" width="280" height="560" as="geometry"/>
                </mxCell>
                <mxCell id="32" value="" style="swimlane;startSize=0;fontSize=18;fontColor=#143642;labelBackgroundColor=none;fillColor=#FAE5C7;strokeColor=#0F8B8D;" parent="1" vertex="1">
                    <mxGeometry x="1257" y="672" width="280" height="560" as="geometry"/>
                </mxCell>
                <mxCell id="42" style="edgeStyle=none;html=1;exitX=0.5;exitY=1;exitDx=0;exitDy=0;entryX=0.5;entryY=0;entryDx=0;entryDy=0;fontSize=18;fontColor=default;labelBackgroundColor=none;strokeColor=#A8201A;" parent="32" source="35" target="36" edge="1">
                    <mxGeometry relative="1" as="geometry"/>
                </mxCell>
                <mxCell id="35" value="&lt;p style=&quot;margin: 0px; line-height: 100%;&quot; align=&quot;center&quot;&gt;读取对应功能Mod配置表找到需要解锁的皮肤Id&lt;/p&gt;" style="rounded=0;whiteSpace=wrap;html=1;labelBorderColor=none;fontFamily=Verdana;fontSize=12;labelBackgroundColor=none;fillColor=#FAE5C7;strokeColor=#0F8B8D;fontColor=#143642;" parent="32" vertex="1">
                    <mxGeometry x="80" y="48" width="120" height="80" as="geometry"/>
                </mxCell>
                <mxCell id="36" value="读取skin_action配置表找到对应获取皮肤数据MA" style="rounded=0;whiteSpace=wrap;html=1;labelBorderColor=none;fontFamily=Verdana;fontSize=12;labelBackgroundColor=none;fillColor=#FAE5C7;strokeColor=#0F8B8D;fontColor=#143642;" parent="32" vertex="1">
                    <mxGeometry x="80" y="168" width="120" height="80" as="geometry"/>
                </mxCell>
                <mxCell id="33" value="" style="swimlane;startSize=0;fontSize=18;fontColor=#143642;labelBackgroundColor=none;fillColor=#FAE5C7;strokeColor=#0F8B8D;" parent="1" vertex="1">
                    <mxGeometry x="1537" y="672" width="280" height="560" as="geometry"/>
                </mxCell>
                <mxCell id="34" value="&lt;p style=&quot;margin: 0px; line-height: 100%;&quot; align=&quot;center&quot;&gt;接入事件获得皮肤&lt;/p&gt;" style="rounded=0;whiteSpace=wrap;html=1;labelBorderColor=none;fontFamily=Verdana;fontSize=12;labelBackgroundColor=none;fillColor=#FAE5C7;strokeColor=#0F8B8D;fontColor=#143642;" parent="33" vertex="1">
                    <mxGeometry x="80" y="48" width="120" height="80" as="geometry"/>
                </mxCell>
                <mxCell id="41" style="edgeStyle=none;html=1;exitX=0;exitY=0.5;exitDx=0;exitDy=0;entryX=1;entryY=0.5;entryDx=0;entryDy=0;fontSize=18;fontColor=default;labelBackgroundColor=none;strokeColor=#A8201A;" parent="1" source="34" target="35" edge="1">
                    <mxGeometry relative="1" as="geometry"/>
                </mxCell>
                <mxCell id="43" style="edgeStyle=none;html=1;exitX=0;exitY=0.5;exitDx=0;exitDy=0;entryX=1;entryY=0.5;entryDx=0;entryDy=0;fontSize=18;fontColor=default;labelBackgroundColor=none;strokeColor=#A8201A;" parent="1" source="36" target="37" edge="1">
                    <mxGeometry relative="1" as="geometry"/>
                </mxCell>
                <mxCell id="44" style="edgeStyle=none;html=1;exitX=1;exitY=0.25;exitDx=0;exitDy=0;entryX=0.5;entryY=1;entryDx=0;entryDy=0;fontSize=18;fontColor=default;labelBackgroundColor=none;strokeColor=#A8201A;" parent="1" source="37" target="mHzkHHyCrzJshyYu6dmJ-29" edge="1">
                    <mxGeometry relative="1" as="geometry">
                        <Array as="points">
                            <mxPoint x="1118" y="860"/>
                        </Array>
                    </mxGeometry>
                </mxCell>
                <mxCell id="47" style="edgeStyle=none;html=1;exitX=0.75;exitY=1;exitDx=0;exitDy=0;entryX=1;entryY=0.5;entryDx=0;entryDy=0;fontSize=18;fontColor=default;labelBackgroundColor=none;strokeColor=#A8201A;" parent="1" source="mHzkHHyCrzJshyYu6dmJ-29" edge="1">
                    <mxGeometry relative="1" as="geometry">
                        <mxPoint x="900" y="1000" as="targetPoint"/>
                        <Array as="points">
                            <mxPoint x="1148" y="1000"/>
                        </Array>
                    </mxGeometry>
                </mxCell>
                <mxCell id="52" value="" style="swimlane;startSize=0;fontSize=18;fontColor=#143642;labelBackgroundColor=none;fillColor=#FAE5C7;strokeColor=#0F8B8D;" parent="1" vertex="1">
                    <mxGeometry x="94" y="1232" width="40" height="420" as="geometry"/>
                </mxCell>
                <mxCell id="56" value="更换穿戴皮肤" style="text;html=1;align=center;verticalAlign=middle;resizable=0;points=[];autosize=1;strokeColor=none;fillColor=none;fontSize=20;fontColor=#143642;rotation=270;labelBackgroundColor=none;" parent="52" vertex="1">
                    <mxGeometry x="-50" y="186" width="140" height="40" as="geometry"/>
                </mxCell>
                <mxCell id="54" value="" style="swimlane;startSize=0;fontSize=18;fontColor=#143642;labelBackgroundColor=none;fillColor=#FAE5C7;strokeColor=#0F8B8D;" parent="1" vertex="1">
                    <mxGeometry x="96" y="112" width="40" height="560" as="geometry"/>
                </mxCell>
                <mxCell id="55" value="&lt;font style=&quot;font-size: 20px;&quot;&gt;获取皮肤基础信息&lt;/font&gt;" style="text;html=1;align=center;verticalAlign=middle;resizable=0;points=[];autosize=1;strokeColor=none;fillColor=none;fontSize=18;fontColor=#143642;rotation=270;labelBackgroundColor=none;" parent="1" vertex="1">
                    <mxGeometry x="30" y="370" width="180" height="40" as="geometry"/>
                </mxCell>
                <mxCell id="57" value="" style="swimlane;startSize=0;fontSize=18;fontColor=#143642;labelBackgroundColor=none;fillColor=#FAE5C7;strokeColor=#0F8B8D;" parent="1" vertex="1">
                    <mxGeometry x="136" y="1232" width="280" height="420" as="geometry"/>
                </mxCell>
                <mxCell id="67" value="&lt;p style=&quot;margin: 0px; line-height: 100%;&quot; align=&quot;center&quot;&gt;&lt;span style=&quot;font-family:'Microsoft YaHei'; font-size:10pt; color:#454545;&quot;&gt;更换穿戴皮肤&lt;/span&gt;&lt;/p&gt;&lt;p style=&quot;margin: 0px; line-height: 100%;&quot; align=&quot;center&quot;&gt;&lt;span style=&quot;font-family:'Microsoft YaHei'; font-size:10pt; color:#454545;&quot;&gt;change_skin(SkinId)&lt;/span&gt;&lt;/p&gt;&lt;p style=&quot;margin: 0px; line-height: 100%;&quot; align=&quot;center&quot;&gt;&lt;span style=&quot;font-family:'Microsoft YaHei'; font-size:10pt; color:#454545;&quot;&gt;skin:皮肤Id&lt;/span&gt;&lt;/p&gt;" style="ellipse;whiteSpace=wrap;html=1;labelBackgroundColor=none;fillColor=#FAE5C7;strokeColor=#0F8B8D;fontColor=#143642;" parent="57" vertex="1">
                    <mxGeometry x="64" y="48" width="120" height="80" as="geometry"/>
                </mxCell>
                <mxCell id="73" value="&lt;p style=&quot;margin: 0px; line-height: 100%;&quot; align=&quot;center&quot;&gt;&lt;font face=&quot;Microsoft YaHei&quot; color=&quot;#454545&quot;&gt;&lt;span style=&quot;font-size: 13.3333px;&quot;&gt;返回客户端&lt;/span&gt;&lt;/font&gt;&lt;/p&gt;" style="ellipse;whiteSpace=wrap;html=1;labelBackgroundColor=none;fillColor=#FAE5C7;strokeColor=#0F8B8D;fontColor=#143642;" parent="57" vertex="1">
                    <mxGeometry x="64" y="288" width="120" height="80" as="geometry"/>
                </mxCell>
                <mxCell id="58" value="" style="swimlane;startSize=0;fontSize=18;fontColor=#143642;labelBackgroundColor=none;fillColor=#FAE5C7;strokeColor=#0F8B8D;" parent="1" vertex="1">
                    <mxGeometry x="417" y="1232" width="280" height="420" as="geometry"/>
                </mxCell>
                <mxCell id="69" value="&lt;p style=&quot;border-color: var(--border-color); font-family: Helvetica; margin: 0px; line-height: 12px;&quot; align=&quot;center&quot;&gt;&lt;span style=&quot;border-color: var(--border-color); font-family: &amp;quot;Microsoft YaHei&amp;quot;; font-size: 10pt; color: rgb(69, 69, 69);&quot;&gt;更换穿戴皮肤&lt;/span&gt;&lt;/p&gt;&lt;p style=&quot;border-color: var(--border-color); font-family: Helvetica; margin: 0px; line-height: 12px;&quot; align=&quot;center&quot;&gt;&lt;span style=&quot;border-color: var(--border-color); font-family: &amp;quot;Microsoft YaHei&amp;quot;; font-size: 10pt; color: rgb(69, 69, 69);&quot;&gt;change_skin(SkinId)&lt;/span&gt;&lt;/p&gt;&lt;p style=&quot;border-color: var(--border-color); font-family: Helvetica; margin: 0px; line-height: 12px;&quot; align=&quot;center&quot;&gt;&lt;span style=&quot;border-color: var(--border-color); font-family: &amp;quot;Microsoft YaHei&amp;quot;; font-size: 10pt; color: rgb(69, 69, 69);&quot;&gt;skin:皮肤Id&lt;/span&gt;&lt;/p&gt;" style="rounded=0;whiteSpace=wrap;html=1;labelBorderColor=none;fontFamily=Verdana;fontSize=12;labelBackgroundColor=none;fillColor=#FAE5C7;strokeColor=#0F8B8D;fontColor=#143642;" parent="58" vertex="1">
                    <mxGeometry x="79" y="48" width="120" height="80" as="geometry"/>
                </mxCell>
                <mxCell id="61" value="" style="swimlane;startSize=0;fontSize=18;fontColor=#143642;aspect=fixed;labelBackgroundColor=none;fillColor=#FAE5C7;strokeColor=#0F8B8D;" parent="1" vertex="1">
                    <mxGeometry x="696" y="1232" width="280" height="420" as="geometry"/>
                </mxCell>
                <mxCell id="71" value="对应模块锁表数据信息" style="shape=document;whiteSpace=wrap;html=1;boundedLbl=1;labelBackgroundColor=none;fillColor=#FAE5C7;strokeColor=#0F8B8D;fontColor=#143642;" parent="61" vertex="1">
                    <mxGeometry x="84" y="168" width="120" height="80" as="geometry"/>
                </mxCell>
                <mxCell id="101" value="&lt;span style=&quot;font-family: Verdana;&quot;&gt;实现更换穿戴皮肤l&lt;/span&gt;&lt;br style=&quot;border-color: var(--border-color); font-family: Verdana;&quot;&gt;&lt;span style=&quot;font-family: Verdana;&quot;&gt;数据落库&lt;/span&gt;" style="shape=document;whiteSpace=wrap;html=1;boundedLbl=1;labelBackgroundColor=none;fillColor=#FAE5C7;strokeColor=#0F8B8D;fontColor=#143642;" parent="61" vertex="1">
                    <mxGeometry x="84" y="288" width="120" height="80" as="geometry"/>
                </mxCell>
                <mxCell id="62" value="" style="swimlane;startSize=0;fontSize=18;fontColor=#143642;aspect=fixed;labelBackgroundColor=none;fillColor=#FAE5C7;strokeColor=#0F8B8D;" parent="1" vertex="1">
                    <mxGeometry x="977" y="1232" width="280" height="420" as="geometry"/>
                </mxCell>
                <mxCell id="63" value="" style="swimlane;startSize=0;fontSize=18;fontColor=#143642;labelBackgroundColor=none;fillColor=#FAE5C7;strokeColor=#0F8B8D;" parent="1" vertex="1">
                    <mxGeometry x="1258" y="1232" width="280" height="420" as="geometry"/>
                </mxCell>
                <mxCell id="68" value="&lt;p style=&quot;margin: 0px; line-height: 100%;&quot; align=&quot;center&quot;&gt;读取对应功能Mod配置表找到需要解锁的皮肤Id&lt;/p&gt;" style="rounded=0;whiteSpace=wrap;html=1;labelBorderColor=none;fontFamily=Verdana;fontSize=12;labelBackgroundColor=none;fillColor=#FAE5C7;strokeColor=#0F8B8D;fontColor=#143642;" parent="63" vertex="1">
                    <mxGeometry x="80" y="48" width="120" height="80" as="geometry"/>
                </mxCell>
                <mxCell id="64" value="" style="swimlane;startSize=0;fontSize=18;fontColor=#143642;labelBackgroundColor=none;fillColor=#FAE5C7;strokeColor=#0F8B8D;" parent="1" vertex="1">
                    <mxGeometry x="1539" y="1232" width="280" height="420" as="geometry"/>
                </mxCell>
                <mxCell id="65" value="" style="swimlane;startSize=0;fontSize=18;fontColor=#143642;labelBackgroundColor=none;fillColor=#FAE5C7;strokeColor=#0F8B8D;" parent="1" vertex="1">
                    <mxGeometry x="96" y="673" width="40" height="560" as="geometry"/>
                </mxCell>
                <mxCell id="66" value="获得皮肤" style="text;html=1;align=center;verticalAlign=middle;resizable=0;points=[];autosize=1;strokeColor=none;fillColor=none;fontSize=20;fontColor=#143642;rotation=270;labelBackgroundColor=none;" parent="65" vertex="1">
                    <mxGeometry x="-30" y="238" width="100" height="40" as="geometry"/>
                </mxCell>
                <mxCell id="75" style="edgeStyle=none;hachureGap=4;html=1;exitX=1;exitY=0.5;exitDx=0;exitDy=0;entryX=0;entryY=0.5;entryDx=0;entryDy=0;fontFamily=Architects Daughter;fontSource=https%3A%2F%2Ffonts.googleapis.com%2Fcss%3Ffamily%3DArchitects%2BDaughter;fontSize=16;labelBackgroundColor=none;strokeColor=#A8201A;fontColor=default;" parent="1" source="69" target="68" edge="1">
                    <mxGeometry relative="1" as="geometry"/>
                </mxCell>
                <mxCell id="76" style="edgeStyle=none;hachureGap=4;html=1;exitX=0.5;exitY=1;exitDx=0;exitDy=0;entryX=1;entryY=0.5;entryDx=0;entryDy=0;fontFamily=Architects Daughter;fontSource=https%3A%2F%2Ffonts.googleapis.com%2Fcss%3Ffamily%3DArchitects%2BDaughter;fontSize=16;labelBackgroundColor=none;strokeColor=#A8201A;fontColor=default;" parent="1" source="68" target="71" edge="1">
                    <mxGeometry relative="1" as="geometry">
                        <Array as="points">
                            <mxPoint x="1398" y="1440"/>
                        </Array>
                    </mxGeometry>
                </mxCell>
                <mxCell id="77" style="edgeStyle=none;hachureGap=4;html=1;exitX=1;exitY=0.25;exitDx=0;exitDy=0;entryX=0.5;entryY=1;entryDx=0;entryDy=0;fontFamily=Architects Daughter;fontSource=https%3A%2F%2Ffonts.googleapis.com%2Fcss%3Ffamily%3DArchitects%2BDaughter;fontSize=16;labelBackgroundColor=none;strokeColor=#A8201A;fontColor=default;" parent="1" source="71" target="mHzkHHyCrzJshyYu6dmJ-29" edge="1">
                    <mxGeometry relative="1" as="geometry">
                        <Array as="points">
                            <mxPoint x="1118" y="1420"/>
                        </Array>
                    </mxGeometry>
                </mxCell>
                <mxCell id="78" style="edgeStyle=none;hachureGap=4;html=1;exitX=0.75;exitY=1;exitDx=0;exitDy=0;entryX=1;entryY=0.5;entryDx=0;entryDy=0;fontFamily=Architects Daughter;fontSource=https%3A%2F%2Ffonts.googleapis.com%2Fcss%3Ffamily%3DArchitects%2BDaughter;fontSize=16;labelBackgroundColor=none;strokeColor=#A8201A;fontColor=default;" parent="1" source="mHzkHHyCrzJshyYu6dmJ-29" edge="1">
                    <mxGeometry relative="1" as="geometry">
                        <mxPoint x="900" y="1560" as="targetPoint"/>
                        <Array as="points">
                            <mxPoint x="1150" y="1560"/>
                        </Array>
                    </mxGeometry>
                </mxCell>
                <mxCell id="79" style="edgeStyle=none;hachureGap=4;html=1;exitX=0;exitY=0.5;exitDx=0;exitDy=0;fontFamily=Architects Daughter;fontSource=https%3A%2F%2Ffonts.googleapis.com%2Fcss%3Ffamily%3DArchitects%2BDaughter;fontSize=16;labelBackgroundColor=none;strokeColor=#A8201A;fontColor=default;" parent="1" target="73" edge="1">
                    <mxGeometry relative="1" as="geometry">
                        <mxPoint x="780" y="1560" as="sourcePoint"/>
                    </mxGeometry>
                </mxCell>
                <mxCell id="81" style="edgeStyle=none;hachureGap=4;html=1;exitX=1;exitY=0.5;exitDx=0;exitDy=0;entryX=0;entryY=0.5;entryDx=0;entryDy=0;fontFamily=Architects Daughter;fontSource=https%3A%2F%2Ffonts.googleapis.com%2Fcss%3Ffamily%3DArchitects%2BDaughter;fontSize=16;labelBackgroundColor=none;strokeColor=#A8201A;fontColor=default;" parent="1" source="67" target="69" edge="1">
                    <mxGeometry relative="1" as="geometry"/>
                </mxCell>
                <mxCell id="82" value="" style="swimlane;startSize=0;fontSize=18;fontColor=#143642;labelBackgroundColor=none;fillColor=#FAE5C7;strokeColor=#0F8B8D;" parent="1" vertex="1">
                    <mxGeometry x="136" y="1653" width="280" height="560" as="geometry"/>
                </mxCell>
                <mxCell id="90" value="" style="swimlane;startSize=0;fontSize=18;fontColor=#143642;labelBackgroundColor=none;fillColor=#FAE5C7;strokeColor=#0F8B8D;" parent="82" vertex="1">
                    <mxGeometry x="-41" width="40" height="560" as="geometry"/>
                </mxCell>
                <mxCell id="91" value="皮肤升星" style="text;html=1;align=center;verticalAlign=middle;resizable=0;points=[];autosize=1;strokeColor=none;fillColor=none;fontSize=20;fontColor=#143642;rotation=270;labelBackgroundColor=none;" parent="90" vertex="1">
                    <mxGeometry x="-30" y="238" width="100" height="40" as="geometry"/>
                </mxCell>
                <mxCell id="92" value="&lt;p style=&quot;margin: 0px; line-height: 100%;&quot; align=&quot;center&quot;&gt;&lt;font face=&quot;Microsoft YaHei&quot; color=&quot;#454545&quot;&gt;&lt;span style=&quot;font-size: 13.3333px;&quot;&gt;皮肤升星&lt;/span&gt;&lt;/font&gt;&lt;/p&gt;&lt;p style=&quot;margin: 0px; line-height: 100%;&quot; align=&quot;center&quot;&gt;&lt;font face=&quot;Microsoft YaHei&quot; color=&quot;#454545&quot;&gt;&lt;span style=&quot;font-size: 13.3333px;&quot;&gt;up_skin_star(SkinId)&lt;/span&gt;&lt;/font&gt;&lt;/p&gt;&lt;p style=&quot;margin: 0px; line-height: 100%;&quot; align=&quot;center&quot;&gt;&lt;font face=&quot;Microsoft YaHei&quot; color=&quot;#454545&quot;&gt;&lt;span style=&quot;font-size: 13.3333px;&quot;&gt;SkinId:皮肤Id&lt;/span&gt;&lt;/font&gt;&lt;/p&gt;" style="ellipse;whiteSpace=wrap;html=1;labelBackgroundColor=none;fillColor=#FAE5C7;strokeColor=#0F8B8D;fontColor=#143642;" parent="82" vertex="1">
                    <mxGeometry x="64" y="67" width="120" height="80" as="geometry"/>
                </mxCell>
                <mxCell id="103" value="&lt;p style=&quot;margin: 0px; line-height: 100%;&quot; align=&quot;center&quot;&gt;&lt;font face=&quot;Microsoft YaHei&quot; color=&quot;#454545&quot;&gt;&lt;span style=&quot;font-size: 13.3333px;&quot;&gt;结束返回客户端&lt;/span&gt;&lt;/font&gt;&lt;/p&gt;" style="ellipse;whiteSpace=wrap;html=1;labelBackgroundColor=none;fillColor=#FAE5C7;strokeColor=#0F8B8D;fontColor=#143642;" parent="82" vertex="1">
                    <mxGeometry x="64" y="307" width="120" height="80" as="geometry"/>
                </mxCell>
                <mxCell id="104" value="&lt;p style=&quot;margin: 0px; line-height: 100%;&quot; align=&quot;center&quot;&gt;&lt;font face=&quot;Microsoft YaHei&quot; color=&quot;#454545&quot;&gt;&lt;span style=&quot;font-size: 13.3333px;&quot;&gt;报错终止&lt;/span&gt;&lt;/font&gt;&lt;/p&gt;" style="ellipse;whiteSpace=wrap;html=1;labelBackgroundColor=none;fillColor=#FAE5C7;strokeColor=#0F8B8D;fontColor=#143642;" parent="82" vertex="1">
                    <mxGeometry x="64" y="427" width="120" height="80" as="geometry"/>
                </mxCell>
                <mxCell id="85" value="" style="swimlane;startSize=0;fontSize=18;fontColor=#143642;labelBackgroundColor=none;fillColor=#FAE5C7;strokeColor=#0F8B8D;" parent="1" vertex="1">
                    <mxGeometry x="415" y="1653" width="280" height="560" as="geometry"/>
                </mxCell>
                <mxCell id="93" value="&lt;p style=&quot;border-color: var(--border-color); font-family: Helvetica; margin: 0px; line-height: 12px;&quot; align=&quot;center&quot;&gt;&lt;font style=&quot;border-color: var(--border-color);&quot; face=&quot;Microsoft YaHei&quot; color=&quot;#454545&quot;&gt;&lt;span style=&quot;border-color: var(--border-color); font-size: 13.3333px;&quot;&gt;皮肤升星&lt;/span&gt;&lt;/font&gt;&lt;/p&gt;&lt;p style=&quot;border-color: var(--border-color); font-family: Helvetica; margin: 0px; line-height: 12px;&quot; align=&quot;center&quot;&gt;&lt;font style=&quot;border-color: var(--border-color);&quot; face=&quot;Microsoft YaHei&quot; color=&quot;#454545&quot;&gt;&lt;span style=&quot;border-color: var(--border-color); font-size: 13.3333px;&quot;&gt;up_skin_star(SkinId)&lt;/span&gt;&lt;/font&gt;&lt;/p&gt;&lt;p style=&quot;border-color: var(--border-color); font-family: Helvetica; margin: 0px; line-height: 12px;&quot; align=&quot;center&quot;&gt;&lt;font style=&quot;border-color: var(--border-color);&quot; face=&quot;Microsoft YaHei&quot; color=&quot;#454545&quot;&gt;&lt;span style=&quot;border-color: var(--border-color); font-size: 13.3333px;&quot;&gt;SkinId:皮肤Id&lt;/span&gt;&lt;/font&gt;&lt;/p&gt;" style="rounded=0;whiteSpace=wrap;html=1;labelBorderColor=none;fontFamily=Verdana;fontSize=12;labelBackgroundColor=none;fillColor=#FAE5C7;strokeColor=#0F8B8D;fontColor=#143642;" parent="85" vertex="1">
                    <mxGeometry x="84" y="67" width="120" height="80" as="geometry"/>
                </mxCell>
                <mxCell id="86" value="" style="swimlane;startSize=0;fontSize=18;fontColor=#143642;labelBackgroundColor=none;fillColor=#FAE5C7;strokeColor=#0F8B8D;" parent="1" vertex="1">
                    <mxGeometry x="695" y="1653" width="280" height="560" as="geometry"/>
                </mxCell>
                <mxCell id="96" value="对应模块锁表数据信息" style="shape=document;whiteSpace=wrap;html=1;boundedLbl=1;labelBackgroundColor=none;fillColor=#FAE5C7;strokeColor=#0F8B8D;fontColor=#143642;" parent="86" vertex="1">
                    <mxGeometry x="85" y="187" width="120" height="80" as="geometry"/>
                </mxCell>
                <mxCell id="102" value="&lt;font face=&quot;Verdana&quot;&gt;皮肤升星，数据落地&lt;/font&gt;" style="shape=document;whiteSpace=wrap;html=1;boundedLbl=1;labelBackgroundColor=none;fillColor=#FAE5C7;strokeColor=#0F8B8D;fontColor=#143642;" parent="86" vertex="1">
                    <mxGeometry x="80" y="307" width="120" height="80" as="geometry"/>
                </mxCell>
                <mxCell id="87" value="" style="swimlane;startSize=0;fontSize=18;fontColor=#143642;labelBackgroundColor=none;fillColor=#FAE5C7;strokeColor=#0F8B8D;" parent="1" vertex="1">
                    <mxGeometry x="976" y="1653" width="280" height="560" as="geometry"/>
                </mxCell>
                <mxCell id="99" value="消耗条件判断" style="rhombus;whiteSpace=wrap;html=1;hachureGap=4;fontFamily=Architects Daughter;fontSource=https%3A%2F%2Ffonts.googleapis.com%2Fcss%3Ffamily%3DArchitects%2BDaughter;fontSize=12;labelBackgroundColor=none;fillColor=#FAE5C7;strokeColor=#0F8B8D;fontColor=#143642;" parent="87" vertex="1">
                    <mxGeometry x="82" y="307" width="120" height="80" as="geometry"/>
                </mxCell>
                <mxCell id="88" value="" style="swimlane;startSize=0;fontSize=18;fontColor=#143642;labelBackgroundColor=none;fillColor=#FAE5C7;strokeColor=#0F8B8D;" parent="1" vertex="1">
                    <mxGeometry x="1258" y="1653" width="280" height="560" as="geometry"/>
                </mxCell>
                <mxCell id="95" value="读取skin_action配置表找到对应获取皮肤数据MA" style="rounded=0;whiteSpace=wrap;html=1;labelBorderColor=none;fontFamily=Verdana;fontSize=12;labelBackgroundColor=none;fillColor=#FAE5C7;strokeColor=#0F8B8D;fontColor=#143642;" parent="88" vertex="1">
                    <mxGeometry x="79" y="67" width="120" height="80" as="geometry"/>
                </mxCell>
                <mxCell id="89" value="" style="swimlane;startSize=0;fontSize=18;fontColor=#143642;labelBackgroundColor=none;fillColor=#FAE5C7;strokeColor=#0F8B8D;" parent="1" vertex="1">
                    <mxGeometry x="1539" y="1653" width="280" height="560" as="geometry"/>
                </mxCell>
                <mxCell id="105" style="edgeStyle=none;html=1;exitX=1;exitY=0.5;exitDx=0;exitDy=0;fontSize=12;labelBackgroundColor=none;strokeColor=#A8201A;fontColor=default;" parent="1" source="92" target="93" edge="1">
                    <mxGeometry relative="1" as="geometry"/>
                </mxCell>
                <mxCell id="106" style="edgeStyle=none;html=1;exitX=1;exitY=0.5;exitDx=0;exitDy=0;fontSize=12;labelBackgroundColor=none;strokeColor=#A8201A;fontColor=default;" parent="1" source="93" target="95" edge="1">
                    <mxGeometry relative="1" as="geometry"/>
                </mxCell>
                <mxCell id="108" style="edgeStyle=none;html=1;exitX=0.5;exitY=1;exitDx=0;exitDy=0;entryX=1;entryY=0.5;entryDx=0;entryDy=0;fontSize=12;labelBackgroundColor=none;strokeColor=#A8201A;fontColor=default;" parent="1" source="95" target="96" edge="1">
                    <mxGeometry relative="1" as="geometry">
                        <Array as="points">
                            <mxPoint x="1400" y="1880"/>
                        </Array>
                    </mxGeometry>
                </mxCell>
                <mxCell id="109" style="edgeStyle=none;html=1;exitX=1;exitY=0.25;exitDx=0;exitDy=0;entryX=0.5;entryY=1;entryDx=0;entryDy=0;fontSize=12;labelBackgroundColor=none;strokeColor=#A8201A;fontColor=default;" parent="1" source="96" target="mHzkHHyCrzJshyYu6dmJ-29" edge="1">
                    <mxGeometry relative="1" as="geometry">
                        <Array as="points">
                            <mxPoint x="1118" y="1860"/>
                        </Array>
                    </mxGeometry>
                </mxCell>
                <mxCell id="110" style="edgeStyle=none;html=1;exitX=1;exitY=1;exitDx=0;exitDy=0;entryX=1;entryY=0.5;entryDx=0;entryDy=0;fontSize=12;labelBackgroundColor=none;strokeColor=#A8201A;fontColor=default;" parent="1" source="mHzkHHyCrzJshyYu6dmJ-29" target="99" edge="1">
                    <mxGeometry relative="1" as="geometry"/>
                </mxCell>
                <mxCell id="112" style="edgeStyle=none;html=1;exitX=0;exitY=0.5;exitDx=0;exitDy=0;entryX=1;entryY=0.5;entryDx=0;entryDy=0;fontSize=12;labelBackgroundColor=none;strokeColor=#A8201A;fontColor=default;" parent="1" source="99" target="102" edge="1">
                    <mxGeometry relative="1" as="geometry"/>
                </mxCell>
                <mxCell id="114" value="足够" style="edgeLabel;html=1;align=center;verticalAlign=middle;resizable=0;points=[];fontSize=12;labelBackgroundColor=none;fontColor=#143642;" parent="112" vertex="1" connectable="0">
                    <mxGeometry x="-0.341" y="3" relative="1" as="geometry">
                        <mxPoint as="offset"/>
                    </mxGeometry>
                </mxCell>
                <mxCell id="113" style="edgeStyle=none;html=1;exitX=0;exitY=0.5;exitDx=0;exitDy=0;fontSize=12;labelBackgroundColor=none;strokeColor=#A8201A;fontColor=default;" parent="1" source="102" target="103" edge="1">
                    <mxGeometry relative="1" as="geometry"/>
                </mxCell>
                <mxCell id="115" style="edgeStyle=none;html=1;exitX=0.5;exitY=1;exitDx=0;exitDy=0;entryX=1;entryY=0.5;entryDx=0;entryDy=0;fontSize=12;labelBackgroundColor=none;strokeColor=#A8201A;fontColor=default;" parent="1" source="99" target="104" edge="1">
                    <mxGeometry relative="1" as="geometry">
                        <Array as="points">
                            <mxPoint x="1120" y="2120"/>
                        </Array>
                    </mxGeometry>
                </mxCell>
                <mxCell id="116" value="不足够" style="edgeLabel;html=1;align=center;verticalAlign=middle;resizable=0;points=[];fontSize=12;labelBackgroundColor=none;fontColor=#143642;" parent="115" vertex="1" connectable="0">
                    <mxGeometry x="0.0197" y="3" relative="1" as="geometry">
                        <mxPoint as="offset"/>
                    </mxGeometry>
                </mxCell>
                <mxCell id="ucOL65wZWcOJnMj6o85P-63" value="未命名图层" parent="0"/>
                <mxCell id="ucOL65wZWcOJnMj6o85P-68" value="skin.cfg" style="swimlane;whiteSpace=wrap;startSize=23;swimlaneFillColor=none;labelBackgroundColor=none;fillColor=#FAE5C7;strokeColor=#0F8B8D;fontColor=#143642;" parent="ucOL65wZWcOJnMj6o85P-63" vertex="1">
                    <mxGeometry x="1258" y="111" width="280" height="560" as="geometry"/>
                </mxCell>
                <mxCell id="mHzkHHyCrzJshyYu6dmJ-25" value="读取skin_action配置表找到对应获取皮肤数据MA" style="rounded=0;whiteSpace=wrap;html=1;labelBorderColor=none;fontFamily=Verdana;fontSize=12;labelBackgroundColor=none;fillColor=#FAE5C7;strokeColor=#0F8B8D;fontColor=#143642;" parent="ucOL65wZWcOJnMj6o85P-68" vertex="1">
                    <mxGeometry x="80" y="52" width="120" height="80" as="geometry"/>
                </mxCell>
                <mxCell id="mHzkHHyCrzJshyYu6dmJ-36" style="edgeStyle=none;rounded=0;orthogonalLoop=1;jettySize=auto;html=1;exitX=0.5;exitY=1;exitDx=0;exitDy=0;entryX=1;entryY=0.5;entryDx=0;entryDy=0;labelBackgroundColor=none;strokeColor=#A8201A;fontColor=default;" parent="ucOL65wZWcOJnMj6o85P-63" source="mHzkHHyCrzJshyYu6dmJ-25" target="8" edge="1">
                    <mxGeometry relative="1" as="geometry">
                        <Array as="points">
                            <mxPoint x="1400" y="320"/>
                        </Array>
                        <mxPoint x="890" y="422" as="targetPoint"/>
                    </mxGeometry>
                </mxCell>
            </root>
        </mxGraphModel>
    </diagram>
</mxfile>